# xmcd
#
# Track frame offsets: 
#        150
#        14608
#        29108
#        41842
#        56193
#        67193
#        82056
#        102274
#        115769
#
# Disc length: 1781 seconds
#
# Revision: 0
# Processed by: cddbd v1.5.2PL0 Copyright (c) Steve Scherf et al.
# Submitted via: ExactAudioCopy v0.95b4
#
DISCID=8606f309
DTITLE=Future Islands - "Wave Like Home"
DYEAR=2008
DGENRE=New Wave
TTITLE0=Pangea
TTITLE1=Old Friend
TTITLE2=Flicker and Flutter
TTITLE3=Escape Artist
TTITLE4=Seize a Shark
TTITLE5=Heart Grows Old
TTITLE6=Beach Foam
TTITLE7=Wave Like Home
TTITLE8=Little
EXTD=
EXTT0=
EXTT1=
EXTT2=
EXTT3=
EXTT4=
EXTT5=
EXTT6=
EXTT7=
EXTT8=
PLAYORDER=
